#!OML:ASF F:\VICON\USERDATA\INSTALL\rory3\rory3.ASF
:FULLY-SPECIFIED
:DEGREES
2009
root -2.17056 17.6199 -1.62736 3.65129 24.6326 3.04226
lowerback 12.35 -8.11176 -8.40387
upperback 3.45183 -11.6126 4.09052
thorax -0.603023 -5.95334 10.2535
lowerneck -22.1192 3.73699 -9.20884
upperneck 30.3916 8.63454 1.1335
head 13.5656 2.81235 3.51242
rclavicle 1.63003e-014 -1.86858e-014
rhumerus -45.1077 -0.528405 -52.7839
rradius 54.6788
rwrist 15.8298
rhand -24.7102 16.3367
rfingers 7.12502
rthumb 1.79149 -13.6355
lclavicle 1.63003e-014 -1.86858e-014
lhumerus 24.0335 -17.0514 85.4382
lradius 60.9717
lwrist 14.025
lhand -17.4965 10.8349
lfingers 7.12502
lthumb 8.75627 40.6333
rfemur -65.2753 2.45133 21.7244
rtibia 92.1034
rfoot 0.00525863 -10.9577
rtoes 9.71305
lfemur -14.0113 11.2399 -26.137
ltibia 27.3298
lfoot -21.2496 -12.0167
ltoes -28.1884
2010
root -2.17062 17.6143 -1.59387 3.68471 24.1874 3.08003
lowerback 11.7657 -8.00946 -8.17196
upperback 3.23599 -11.4242 3.93248
thorax -0.646174 -5.84113 9.87123
lowerneck -22.0642 3.48446 -9.11208
upperneck 30.4711 8.2636 1.04676
head 13.624 2.64517 3.40489
rclavicle 1.08536e-013 -8.74653e-015
rhumerus -44.7841 -0.405043 -53.0006
rradius 55.5472
rwrist 15.5975
rhand -24.8405 16.2655
rfingers 7.12502
rthumb 1.66559 -13.7077
lclavicle 1.08536e-013 -8.74653e-015
lhumerus 22.1951 -16.5688 84.8223
lradius 61.5503
lwrist 13.8682
lhand -17.763 10.7017
lfingers 7.12502
lthumb 8.49908 40.5107
rfemur -63.5081 1.6801 21.5508
rtibia 91.2196
rfoot -0.877448 -11.5502
rtoes 11.6129
lfemur -13.9402 11.1542 -26.1115
ltibia 27.3869
lfoot -21.1339 -11.974
ltoes -26.734
2011
root -2.17227 17.6113 -1.55749 3.63169 23.7321 3.04171
lowerback 11.1998 -7.86442 -8.08552
upperback 3.08835 -11.1932 3.95788
thorax -0.562088 -5.72487 9.7589
lowerneck -22.158 3.1478 -9.25431
upperneck 30.504 7.87568 0.9632
head 13.6862 2.44398 3.33727
rclavicle 1.43125e-014 -4.77083e-015
rhumerus -44.1629 -0.381386 -52.9581
rradius 56.3902
rwrist 15.7649
rhand -24.8064 15.4609
rfingers 7.12502
rthumb 1.69852 -14.5121
lclavicle 1.43125e-014 -4.77083e-015
lhumerus 20.1913 -15.7899 84.5518
lradius 62.3794
lwrist 13.3523
lhand -17.7188 10.858
lfingers 7.12502
lthumb 8.54176 40.6653
rfemur -61.6653 0.992533 21.4265
rtibia 90.247
rfoot -2.14316 -12.5145
rtoes 11.8223
lfemur -13.7613 10.8901 -25.9731
ltibia 27.3858
lfoot -21.0406 -11.7212
ltoes -25.5487
2012
root -2.17455 17.6088 -1.52049 3.59827 23.2438 3.16637
lowerback 10.7844 -7.71436 -8.13864
upperback 2.85695 -10.9834 3.92369
thorax -0.627581 -5.60712 9.69676
lowerneck -22.014 2.84205 -9.48579
upperneck 30.4729 7.49507 0.983402
head 13.6598 2.25933 3.31453
rclavicle 3.83654e-014 5.56597e-015
rhumerus -43.4767 -0.555301 -52.881
rradius 56.8842
rwrist 16.3712
rhand -24.8045 15.2929
rfingers 7.12502
rthumb 1.70041 -14.6801
lclavicle 3.83654e-014 5.56597e-015
lhumerus 17.9259 -14.9597 84.2613
lradius 63.2577
lwrist 13.0169
lhand -17.3825 10.8116
lfingers 7.12502
lthumb 8.86627 40.6053
rfemur -59.7879 0.280561 21.1358
rtibia 89.1834
rfoot -3.3352 -13.4161
rtoes 11.4862
lfemur -13.4122 10.5701 -26.0285
ltibia 27.1552
lfoot -21.056 -10.9607
ltoes -25.4009
2013
root -2.17669 17.6099 -1.48288 3.53543 22.7298 3.13834
lowerback 10.3613 -7.55292 -7.97303
upperback 2.62188 -10.7336 3.86321
thorax -0.747708 -5.46307 9.48768
lowerneck -21.8497 2.50533 -9.60806
upperneck 30.4806 7.02565 1.00798
head 13.6558 2.04702 3.26244
rclavicle 3.97569e-014 -8.74653e-015
rhumerus -42.8864 -0.702026 -52.9729
rradius 57.3494
rwrist 16.8165
rhand -24.9376 15.1906
rfingers 7.12502
rthumb 1.57182 -14.7833
lclavicle 3.97569e-014 -8.74653e-015
lhumerus 16.1371 -14.4115 83.6673
lradius 63.6396
lwrist 12.8169
lhand -17.2666 10.9157
lfingers 7.12502
lthumb 8.97811 40.7046
rfemur -57.8647 -0.368944 20.989
rtibia 87.9389
rfoot -4.1852 -14.2042
rtoes 12.4692
lfemur -13.0666 10.3398 -25.9443
ltibia 26.8701
lfoot -21.0553 -10.3191
ltoes -25.6732
2014
root -2.18704 17.6268 -1.43521 3.44275 22.35 3.36342
lowerback 10.0402 -7.37722 -8.19667
upperback 2.40435 -10.5126 3.77438
thorax -0.828483 -5.33965 9.47657
lowerneck -21.7302 2.13247 -9.67867
upperneck 30.606 6.53188 0.933869
head 13.7227 1.80775 3.16475
rclavicle 3.27995e-014 -1.82882e-014
rhumerus -42.5654 -0.539102 -53.094
rradius 58.1843
rwrist 16.8222
rhand -24.8924 15.2007
rfingers 7.12502
rthumb 1.61546 -14.7729
lclavicle 3.27995e-014 -1.82882e-014
lhumerus 14.4298 -13.9845 83.0784
lradius 63.7796
lwrist 12.4416
lhand -17.3721 10.7121
lfingers 7.12502
lthumb 8.87626 40.5054
rfemur -55.7001 -1.0662 20.6035
rtibia 86.6018
rfoot -5.23691 -15.0167
rtoes 13.8367
lfemur -12.5396 10.0412 -26.0135
ltibia 26.5584
lfoot -20.9173 -10.0805
ltoes -25.7148
2015
root -2.19222 17.6336 -1.39435 3.25616 21.7748 3.26682
lowerback 9.75596 -7.17003 -8.06572
upperback 2.21314 -10.2115 3.77132
thorax -0.966706 -5.17238 9.36623
lowerneck -21.5958 1.77136 -9.80955
upperneck 30.651 6.06757 0.863941
head 13.7479 1.57984 3.07957
rclavicle 8.54774e-015 -1.74931e-014
rhumerus -42.1 -0.272449 -53.2348
rradius 58.9976
rwrist 16.8579
rhand -24.7799 14.8032
rfingers 7.12502
rthumb 1.72412 -15.1696
lclavicle 8.54774e-015 -1.74931e-014
lhumerus 12.5648 -13.4833 82.5339
lradius 64.1375
lwrist 12.2396
lhand -17.4019 10.991
lfingers 7.12502
lthumb 8.84752 40.7856
rfemur -53.6857 -1.61571 20.5255
rtibia 85.1947
rfoot -6.44251 -15.8674
rtoes 13.2401
lfemur -12.1112 9.77072 -25.7956
ltibia 26.2872
lfoot -20.699 -9.74545
ltoes -25.0511
2016
root -2.19504 17.6301 -1.35503 3.16388 21.0212 3.25239
lowerback 9.36076 -6.91906 -7.98532
upperback 2.07472 -9.8491 3.75162
thorax -0.993349 -4.98319 9.24142
lowerneck -21.646 1.45243 -9.98103
upperneck 30.7199 5.68291 0.859575
head 13.813 1.38739 3.04569
rclavicle -1.2921e-014 -1.98785e-014
rhumerus -41.4717 -0.115708 -53.4269
rradius 59.6855
rwrist 16.9236
rhand -24.8974 14.52
rfingers 7.12502
rthumb 1.61064 -15.4537
lclavicle -1.2921e-014 -1.98785e-014
lhumerus 10.7283 -12.9224 82.0042
lradius 64.5488
lwrist 12.195
lhand -17.5084 11.2557
lfingers 7.12502
lthumb 8.74479 41.0545
rfemur -51.8668 -2.0115 20.3309
rtibia 83.7659
rfoot -7.41916 -16.7104
rtoes 11.9012
lfemur -11.781 9.53563 -25.7124
ltibia 26.0829
lfoot -20.5178 -9.09894
ltoes -22.8611
2017
root -2.19785 17.6225 -1.31709 3.12979 20.3017 3.44402
lowerback 8.95078 -6.65342 -7.99231
upperback 1.95836 -9.47599 3.61172
thorax -0.995535 -4.78929 9.03386
lowerneck -21.6225 1.08815 -10.0972
upperneck 30.7209 5.20981 0.817071
head 13.843 1.16253 2.968
rclavicle -1.88845e-014 2.3059e-014
rhumerus -40.8407 -0.0683213 -53.7143
rradius 60.2319
rwrist 17.0659
rhand -24.8071 14.216
rfingers 7.12502
rthumb 1.69787 -15.757
lclavicle -1.88845e-014 2.3059e-014
lhumerus 8.86689 -12.2765 81.5733
lradius 64.8274
lwrist 12.1058
lhand -17.251 11.221
lfingers 7.12502
lthumb 8.99313 41.0093
rfemur -50.0687 -2.55855 19.8943
rtibia 82.2888
rfoot -8.19014 -17.427
rtoes 11.5386
lfemur -11.5005 9.53498 -25.8793
ltibia 26.0665
lfoot -20.6267 -8.3436
ltoes -21.4912
2018
root -2.19912 17.6127 -1.28192 3.16576 19.6268 3.62654
lowerback 8.62415 -6.39623 -7.93767
upperback 1.73491 -9.11566 3.48013
thorax -1.15952 -4.58887 8.82561
lowerneck -21.5954 0.724377 -10.2771
upperneck 30.8754 4.71614 0.929882
head 13.9321 0.935856 2.96355
rclavicle 7.39479e-014 -3.97569e-014
rhumerus -40.3815 0.105272 -54.0195
rradius 60.8903
rwrist 16.9643
rhand -24.5139 13.5828
rfingers 7.12502
rthumb 1.98105 -16.3877
lclavicle 7.39479e-014 -3.97569e-014
lhumerus 6.82496 -11.7338 81.1141
lradius 65.1159
lwrist 12.0249
lhand -17.0347 11.2481
lfingers 7.12502
lthumb 9.20183 41.0274
rfemur -48.333 -2.98206 19.4079
rtibia 80.7558
rfoot -9.23716 -17.8966
rtoes 11.5423
lfemur -11.3402 9.28594 -26.0694
ltibia 26.1302
lfoot -20.7252 -7.41104
ltoes -21.5196
2019
root -2.20387 17.6085 -1.24426 3.11634 18.9103 3.65533
lowerback 8.37159 -6.14776 -7.81106
upperback 1.52497 -8.76417 3.39162
thorax -1.34867 -4.39311 8.63337
lowerneck -21.5777 0.390747 -10.3606
upperneck 31.0561 4.26787 0.935627
head 14.0399 0.723103 2.90802
rclavicle 7.15625e-015 1.11319e-014
rhumerus -39.8786 0.351706 -54.4227
rradius 61.46
rwrist 16.9293
rhand -24.5654 13.2798
rfingers 7.12502
rthumb 1.93129 -16.6912
lclavicle 7.15625e-015 1.11319e-014
lhumerus 4.87977 -11.0834 80.5794
lradius 65.2448
lwrist 11.9154
lhand -17.0226 11.2948
lfingers 7.12502
lthumb 9.21357 41.0735
rfemur -46.5586 -3.23941 19.0784
rtibia 79.1056
rfoot -10.7089 -18.4099
rtoes 12.2266
lfemur -11.1547 9.0834 -26.0779
ltibia 26.2105
lfoot -20.9071 -6.60526
ltoes -21.8741
2020
root -2.211 17.6019 -1.20777 2.94121 18.0718 3.67938
lowerback 8.21751 -5.84069 -7.72437
upperback 1.38237 -8.34288 3.31404
thorax -1.52409 -4.16625 8.47961
lowerneck -21.4342 0.0195463 -10.6101
upperneck 31.0787 3.78887 0.974312
head 14.0514 0.492259 2.88066
rclavicle -1.25831e-013 6.04305e-014
rhumerus -39.361 0.610476 -54.7713
rradius 61.9125
rwrist 17.0562
rhand -24.8918 14.0615
rfingers 7.12502
rthumb 1.61605 -15.9122
lclavicle -1.25831e-013 6.04305e-014
lhumerus 2.979 -10.5071 79.9974
lradius 65.3061
lwrist 11.7967
lhand -16.831 11.4688
lfingers 7.12502
lthumb 9.39839 41.2392
rfemur -44.7274 -3.36753 18.7417
rtibia 77.3923
rfoot -11.7727 -19.053
rtoes 13.9321
lfemur -10.8474 9.01555 -26.062
ltibia 26.3266
lfoot -21.0736 -5.88069
ltoes -21.5883
2021
root -2.21711 17.5929 -1.16907 2.90284 17.244 3.80299
lowerback 7.85581 -5.55144 -7.67719
upperback 1.31264 -7.93389 3.20802
thorax -1.50122 -3.95911 8.28456
lowerneck -21.5031 -0.351163 -10.8187
upperneck 31.1252 3.32963 1.00255
head 14.1204 0.269738 2.84952
rclavicle -4.63168e-014 2.14687e-014
rhumerus -38.6261 0.579378 -55.1445
rradius 62.2052
rwrist 17.5456
rhand -25.2285 14.773
rfingers 7.12502
rthumb 1.29088 -15.2028
lclavicle -4.63168e-014 2.14687e-014
lhumerus 1.19334 -9.87544 79.3763
lradius 65.4386
lwrist 11.7354
lhand -16.6861 11.6693
lfingers 7.12502
lthumb 9.53822 41.4334
rfemur -43.0534 -3.52192 18.2883
rtibia 75.6447
rfoot -11.9116 -19.5748
rtoes 14.8229
lfemur -10.6604 8.98894 -26.1581
ltibia 26.449
lfoot -21.1307 -5.35684
ltoes -20.6364
2022
root -2.22751 17.5825 -1.12796 2.87102 16.5674 3.87006
lowerback 7.52478 -5.26818 -7.6316
upperback 1.19124 -7.5354 3.13853
thorax -1.5393 -3.75267 8.13924
lowerneck -21.386 -0.724328 -10.9378
upperneck 31.1083 2.82288 0.970874
head 14.1284 0.0343013 2.76588
rclavicle -1.1619e-013 1.74931e-014
rhumerus -37.994 0.559121 -55.4957
rradius 62.5647
rwrist 17.6753
rhand -25.2653 15.0359
rfingers 7.12502
rthumb 1.25531 -14.9402
lclavicle -1.1619e-013 1.74931e-014
lhumerus -0.670842 -9.30328 78.8629
lradius 65.5278
lwrist 11.5231
lhand -16.7215 11.4372
lfingers 7.12502
lthumb 9.50406 41.2028
rfemur -41.3546 -3.6889 17.9185
rtibia 73.846
rfoot -12.0749 -19.8474
rtoes 15.079
lfemur -10.5194 8.8173 -26.1733
ltibia 26.5967
lfoot -21.1394 -4.69898
ltoes -19.7238
